<?xml version="1.0" encoding="iso-8859-1"?>
<!-- Uploaded to: SVG Repo, www.svgrepo.com, Generator: SVG Repo Mixer Tools -->
<svg height="800px" width="800px" version="1.1" id="Layer_1" xmlns="http://www.w3.org/2000/svg" xmlns:xlink="http://www.w3.org/1999/xlink" 
	 viewBox="0 0 512.001 512.001" xml:space="preserve">
<path style="fill:#F4B2B0;" d="M247.705,296.675L247.705,296.675c-70.369,0-127.412-57.045-127.412-127.412V64.613
	c0-17.578,20.049-27.631,34.136-17.115l93.276,69.631l93.276-69.631c14.086-10.516,34.136-0.462,34.136,17.115v104.651
	C375.117,239.632,318.072,296.675,247.705,296.675z"/>
<path style="fill:#B3404A;" d="M405.894,342.531c-0.634-7.048-6.218-12.632-13.264-13.265c-2.192-0.195-54.106-4.55-96.883,18.87
	c-7.09,3.881-9.69,12.774-5.81,19.862c3.879,7.09,12.774,9.69,19.862,5.81c23.336-12.775,51.22-15.356,67.208-15.659
	c-0.392,20.617-4.564,60.971-29.386,85.791c-31.917,31.917-68.743,44.299-85.283,36.448V310.559
	c71.475-7.348,127.412-67.912,127.412-141.296V64.613c0-19.868-16.186-36.031-36.079-36.031c-7.728,0-15.144,2.486-21.444,7.189
	l-24.204,18.067L288.402,8.794c-3.228-7.409-11.853-10.803-19.259-7.571c-7.409,3.228-10.8,11.85-7.573,19.261l22.363,51.339
	l-36.23,27.044l-36.23-27.046l22.363-51.339c3.228-7.409-0.162-16.033-7.571-19.261c-7.402-3.225-16.033,0.161-19.259,7.571
	l-19.622,45.045L163.18,35.77c-6.3-4.702-13.715-7.188-21.443-7.188c-19.894,0-36.079,16.163-36.079,36.031v104.651
	c0,73.385,55.937,133.947,127.412,141.296v171.914c0,0.701,0.066,1.386,0.161,2.06c-1.016,4.699,0.29,9.8,3.942,13.453
	c9.286,9.285,21.964,14.015,36.913,14.015c8.059,0,16.782-1.376,25.982-4.154c23.13-6.985,47.367-22.331,68.248-43.21
	C412.358,420.592,406.178,345.697,405.894,342.531z M134.925,64.613c0-4.665,3.983-6.764,6.812-6.764
	c1.409,0,2.698,0.449,3.935,1.374l38.984,29.102c0.006,0.004,0.01,0.009,0.015,0.012l39.059,29.157l-87.815,66.48
	c-0.631-4.819-0.991-9.723-0.991-14.711V64.613H134.925z M144.339,214.307L310.814,88.278c0.003-0.001,0.004-0.004,0.006-0.006
	l38.912-29.049c1.222-0.913,2.546-1.374,3.936-1.374c2.83,0,6.812,2.098,6.812,6.764v104.651
	c0,62.187-50.591,112.778-112.778,112.778C201.526,282.041,161.762,254.134,144.339,214.307z"/>
</svg>