<?xml version="1.0" encoding="iso-8859-1"?>
<!-- Uploaded to: SVG Repo, www.svgrepo.com, Generator: SVG Repo Mixer Tools -->
<svg height="800px" width="800px" version="1.1" id="Layer_1" xmlns="http://www.w3.org/2000/svg" xmlns:xlink="http://www.w3.org/1999/xlink" 
	 viewBox="0 0 512 512" xml:space="preserve">
<g>
	<polygon style="fill:#F89890;" points="287.493,8.17 265.39,8.17 248.102,95.319 302.57,51.745 	"/>
	<path style="fill:#F89890;" d="M286.578,51.745h2.745C288.409,51.745,287.493,51.756,286.578,51.745z"/>
</g>
<polygon style="fill:#FFC5BF;" points="265.39,8.17 269.889,51.745 240.204,84.426 209.43,51.745 224.507,8.17 "/>
<path style="fill:#F89890;" d="M194.843,51.745c0,0-4.205,68.009-4.205,68.989c0,8.889,1.776,17.375,5,25.099v-0.403l90.94-93.642
	C286.578,51.745,194.843,51.745,194.843,51.745z"/>
<path style="fill:#EA3F31;" d="M317.157,51.745h-27.833c-0.915,0-1.83,0.011-2.745,0.044L256,186.096
	c36.101,0,65.362-29.26,65.362-65.362C321.362,119.754,317.157,51.745,317.157,51.745z"/>
<path style="fill:#F16C60;" d="M286.578,51.788c-50.514,1.449-90.94,42.768-90.94,93.642v0.403
	c9.848,23.65,33.16,40.263,60.362,40.263c18.051,0,32.681-29.26,32.681-65.362C288.681,119.764,286.644,53.749,286.578,51.788z"/>
<g>
	<polygon style="fill:#F89890;" points="493.182,61.298 473.15,51.957 420.65,123.635 488.431,107.162 	"/>
	<path style="fill:#F89890;" d="M473.938,100.403l2.488,1.16C475.596,101.177,474.762,100.801,473.938,100.403z"/>
</g>
<polygon style="fill:#FFC5BF;" points="473.15,51.957 458.812,93.351 418.097,110.424 404.017,67.8 436.097,34.679 "/>
<path style="fill:#F89890;" d="M390.798,61.635c0,0-32.552,59.859-32.967,60.748c-3.757,8.056-5.733,16.497-6.075,24.86l0.17-0.365
	l121.994-46.435C473.938,100.403,390.798,61.635,390.798,61.635z"/>
<path style="fill:#EA3F31;" d="M501.651,113.326l-25.225-11.763c-0.829-0.387-1.663-0.764-2.507-1.121l-84.475,108.801
	c32.719,15.258,71.604,1.105,86.861-31.614C476.72,176.74,501.651,113.326,501.651,113.326z"/>
<path style="fill:#F16C60;" d="M473.919,100.444c-46.394-20.034-100.495,0.328-121.994,46.435l-0.17,0.365
	c-1.07,25.596,13.037,50.505,37.69,62c16.36,7.629,41.985-12.707,57.242-45.426C447.097,162.939,473.15,102.247,473.919,100.444z"/>
<g>
	<polygon style="fill:#F89890;" points="75.905,34.679 55.872,44.019 77.033,130.309 107.984,67.799 	"/>
	<path style="fill:#F89890;" d="M93.49,74.557l2.488-1.16C95.148,73.784,94.323,74.18,93.49,74.557z"/>
</g>
<polygon style="fill:#FFC5BF;" points="55.872,44.019 78.364,81.61 65.272,123.774 23.569,107.161 18.819,61.297 "/>
<path style="fill:#F89890;" d="M10.349,113.325c0,0,24.93,63.414,25.345,64.303c3.756,8.056,8.952,14.997,15.139,20.635l-0.17-0.365
	L93.509,74.596C93.49,74.557,10.349,113.325,10.349,113.325z"/>
<path style="fill:#EA3F31;" d="M121.203,61.634L95.978,73.397c-0.829,0.387-1.655,0.783-2.47,1.199l29.047,134.647
	c32.719-15.257,46.872-54.141,31.615-86.86C153.756,121.494,121.203,61.634,121.203,61.634z"/>
<path style="fill:#F16C60;" d="M93.509,74.596c-45.169,22.661-64.345,77.193-42.846,123.3l0.17,0.365
	c18.92,17.273,47.069,22.477,71.721,10.981c16.36-7.629,17.253-40.33,1.997-73.049C124.141,135.315,94.396,76.346,93.509,74.596z"/>
<path style="fill:#A7B65F;" d="M294.128,438.468c-0.011,0-59.915-21.787-59.915-21.787L256,503.83h49.021L294.128,438.468z"/>
<polygon style="fill:#C4CE94;" points="256,405.787 256,503.83 206.979,503.83 217.872,438.468 "/>
<path style="fill:#A7B65F;" d="M362.213,264.17l-77.061,174.298h8.965c1.285-0.948,82.585-60.993,100.777-174.298H362.213z"/>
<path style="fill:#C4CE94;" d="M288.681,264.17L256,438.468h29.151c0,0,63.041-60.1,77.061-174.298H288.681z"/>
<path style="fill:#E2E7CA;" d="M117.095,264.17h171.585c0,111.66-32.681,174.298-32.681,174.298h-38.128
	C217.872,438.468,135.429,378.368,117.095,264.17z"/>
<path d="M505.102,105.921l-7.947-3.706l4.152-40.075c0.358-3.464-1.517-6.775-4.673-8.246l-57.079-26.617
	c-3.158-1.473-6.899-0.782-9.323,1.721l-8.019,8.28c-3.14,3.242-3.057,8.414,0.185,11.553c3.243,3.14,8.415,3.056,11.553-0.185
	l3.972-4.1l46.532,21.699l-2.969,28.664l-87.233-40.677c-3.914-1.825-8.569-0.291-10.631,3.501
	c-32.673,60.08-33.052,60.893-33.196,61.201c-8.301,17.801-9.173,37.768-2.455,56.225c5.776,15.872,16.581,28.979,30.813,37.621
	L358.628,256H288.68c-4.513,0-8.17,3.658-8.17,8.17c0,91.76-22.685,150.227-29.709,166.128h-30.134
	c-12.121-9.688-75.249-64.025-93.809-157.957h21.256c0.021,0,0.04,0.004,0.06,0.004c0.026,0,0.053-0.004,0.08-0.004h107.747
	c4.513,0,8.17-3.658,8.17-8.17l0.001-70.366c36.713-4.079,65.361-35.284,65.361-73.067c0-0.338,0-1.236-4.222-69.497
	c-0.266-4.308-3.838-7.666-8.154-7.666h-8.768L295.212,5.499C294.072,2.207,290.974,0,287.49,0h-62.979
	c-3.483,0-6.582,2.207-7.721,5.499l-3.769,10.894c-1.475,4.264,0.785,8.918,5.05,10.393c4.266,1.473,8.916-0.785,10.393-5.05
	l1.866-5.395h51.343l9.423,27.234h-96.251c-4.316,0-7.888,3.357-8.155,7.666c-4.221,68.26-4.221,69.159-4.221,69.497
	c0,9.723,1.914,19.001,5.356,27.503c0.122,0.399,0.279,0.78,0.458,1.149c10.175,23.955,32.706,41.432,59.548,44.414V256h-94.459
	l-20.155-43.223c31.55-19.212,44.326-59.6,28.358-93.845c-0.143-0.306-0.522-1.119-33.196-61.199
	c-2.063-3.792-6.719-5.326-10.63-3.501l-7.947,3.706l-28.03-28.942c-2.423-2.502-6.166-3.192-9.322-1.721L15.37,53.891
	c-3.156,1.472-5.033,4.782-4.674,8.246l1.187,11.466c0.435,4.202,3.983,7.329,8.117,7.329c0.281,0,0.566-0.014,0.852-0.045
	c4.488-0.465,7.75-4.481,7.285-8.969l-0.588-5.678l46.533-21.698l20.051,20.7l-1.607,0.749L6.898,105.92
	c-3.912,1.825-5.73,6.377-4.152,10.395c25.022,63.648,25.401,64.461,25.544,64.769c4.018,8.616,9.618,16.205,16.349,22.504
	c0.428,0.5,0.914,0.931,1.437,1.308c13.256,11.767,30.599,18.661,48.899,18.661c8.034,0,15.887-1.297,23.439-3.857L135.342,256
	h-18.246c-2.393,0-4.666,1.049-6.218,2.87s-2.228,4.232-1.849,6.595c9.749,60.71,37.408,106.221,58.894,133.71
	c12.22,15.635,23.773,27.297,32.137,34.959c-0.789,1.257-1.253,2.74-1.253,4.333c0,4.512,3.658,8.17,8.17,8.17h1.249l-9.308,55.848
	c-0.394,2.368,0.272,4.791,1.825,6.624c1.552,1.833,3.832,2.889,6.233,2.889h98.043c2.402,0,4.682-1.057,6.234-2.889
	s2.22-4.255,1.825-6.624l-9.309-55.848h1.25c4.513,0,8.17-3.658,8.17-8.17c0-1.596-0.465-3.081-1.256-4.339
	c8.364-7.663,19.914-19.322,32.131-34.953c21.488-27.489,49.147-73,58.894-133.71c0.38-2.363-0.296-4.774-1.849-6.595
	c-1.552-1.821-3.825-2.87-6.218-2.87h-18.237l16.928-36.302c7.551,2.561,15.405,3.857,23.44,3.857
	c28.479,0,54.654-16.67,66.684-42.469c0.143-0.307,0.522-1.121,25.546-64.771C510.832,112.297,509.014,107.745,505.102,105.921z
	 M234.05,59.915c-13.979,9.066-25.602,21.464-33.744,36.06c0.681-11.134,1.494-24.337,2.218-36.06
	C202.524,59.915,234.05,59.915,234.05,59.915z M203.84,144.153c0.687-46.565,38.757-84.238,85.482-84.238h13.217
	c0.053,0,6.934,0,6.934,0c1.581,25.603,3.587,58.296,3.717,60.975c-0.082,31.466-25.706,57.038-57.19,57.038
	C232.804,177.929,212.805,164.042,203.84,144.153z M20.765,117.483l28.572-13.323c-8.837,14.124-14.132,30.271-15.343,46.94
	C29.905,140.722,25.063,128.414,20.765,117.483z M57.539,193.233c-19.025-42.482-0.444-92.685,41.884-112.428l18.27-8.519
	c12.254,22.537,27.89,51.32,29.138,53.692c13.221,28.551,0.806,62.559-27.728,75.863c-7.647,3.565-15.765,5.374-24.127,5.374
	C81.016,207.215,67.77,202.062,57.539,193.233z M295.377,495.66H264.17v-24.511c0-4.512-3.657-8.17-8.17-8.17
	c-4.512,0-8.17,3.658-8.17,8.17v24.511h-31.206l8.17-49.021h31.172c0.051,0,31.242,0,31.242,0L295.377,495.66z M331.553,388.653
	c-17.927,23.031-34.593,37.15-40.227,41.645h-22.731c9.204-22.658,27.061-76.796,28.197-157.957h66.995c0.07,0,21.344,0,21.344,0
	C374.775,324.66,350.583,364.203,331.553,388.653z M394.306,72.286l28.573,13.323c-16.501,2.309-32.276,8.634-45.824,18.424
	C382.378,94.23,388.695,82.606,394.306,72.286z M468.834,174.317c-9.387,19.99-29.708,32.899-51.811,32.899
	c-8.363,0-16.48-1.808-24.126-5.374c-13.846-6.456-24.348-17.917-29.573-32.272c-2.409-6.617-3.546-13.483-3.459-20.319
	c20.282-41.958,70.738-60.04,113.106-40.284c0.008,0.003,18.264,8.516,18.264,8.516
	C481.846,141.357,469.849,171.836,468.834,174.317z"/>
</svg>